<svg xmlns="http://www.w3.org/2000/svg" viewBox="0 0 72 32"><g id="g3763" transform="matrix(.97257 0 0 .97257 42 .4)"><g transform="matrix(.99999 0 0 1 -.6 0)" id="g4" fill="none" stroke="#74b1be"><path id="path6" d="M11.7 7.7c-3.8-.7-6.9 0-8 2-1 1.6-.7 3.6.6 5.7m2 2.8c1.6 1.7 3.7 3.3 6.1 4.7 5.8 3.4 11.9 4.2 14.8 2.2m2.6-1c0-.9-.7-1.6-1.5-1.6-.9 0-1.6.7-1.6 1.6 0 .8.7 1.5 1.6 1.5.8 0 1.5-.7 1.5-1.5z" class="svg-stroke"/><path id="path8" d="M26.1 17.7c2.5-2.9 3.5-5.9 2.3-8-1-1.4-2.8-2.2-5.2-2.2m-3.5.4c-2.3.4-4.8 1.4-7.3 2.8-6 3.4-9.7 8.4-9.2 11.9m.5 3c.9 0 1.6-.7 1.6-1.5 0-.9-.7-1.6-1.6-1.6-.9 0-1.6.7-1.6 1.6 0 .8.7 1.5 1.6 1.5z" class="svg-stroke"/><path id="path10" d="M10.2 25c1.3 3.7 3.4 6 5.8 6 1.7 0 3.3-1.2 4.6-3.3m1.5-3.4c.6-2.1 1-4.7 1-7.5 0-6.7-2.4-12.4-5.6-13.8M16 4.3c.9 0 1.6-.7 1.6-1.6 0-.9-.7-1.6-1.6-1.6-.9 0-1.6.7-1.6 1.6 0 .9.7 1.6 1.6 1.6z" class="svg-stroke"/><path id="path12" d="M16.3 18.2c-.8.2-1.5-.3-1.7-1-.2-.8.3-1.6 1-1.7.9-.2 1.6.3 1.8 1 .2.8-.3 1.6-1.1 1.7z" class="svg-fill"/></g></g><style id="style3">.st0{fill:#164a72}.st1{fill:#00aeef}</style><g id="g3798" transform="translate(-3 -.5) scale(.07198)"><path class="st0" d="M86.7 331.4A187.6 187.6 0 0 1 211.5 68l-21.8 46a151.6 151.6 0 0 0-81 171.3l-22 46.1zm283.8 67.5a187 187 0 0 1-229 0l39.7-16.7c22 12.6 47.5 19.7 74.8 19.7 27.3 0 52.8-7.1 74.8-19.7l39.7 16.7zM300.5 68a187.7 187.7 0 0 1 124.8 263.4l-21.8-46a151.6 151.6 0 0 0-81-171.4l-22-46z" id="path7" fill="#164a72"/><path class="st1" d="M256 336.4l89.6 37.8-22.6-47.6-67-28.3-67 28.3-22.5 47.6M256 21.3L69.4 415.2l48.5-20.5 22.5-47.5 71.1-150 44.5-93.9L318.5 235l53 112.2 22.6 47.5 48.5 20.5L256 21.3z" id="path9" fill="#00aeef"/><path id="polygon11" d="M300.5 277.2L256 183.3l-44.5 93.9 44.5-18.7z" fill="#00aeef"/></g><text style="line-height:125%;-inkscape-font-specification:Impact Bold" x="31.9" y="23.7" id="text3803" font-size="40" font-weight="700" letter-spacing="0" word-spacing="0" fill="#00aeef" font-family="Impact"><tspan id="tspan3805" x="31.9" y="23.7" font-size="18">+</tspan></text></svg>