<svg xmlns="http://www.w3.org/2000/svg" version="1" viewBox="0 0 512 512"><path d="M87 331A187 187 0 0 1 212 68l-22 46a152 152 0 0 0-81 171l-22 46zm284 68a187 187 0 0 1-230 0l40-17a150 150 0 0 0 150 0l40 17zM300 68a188 188 0 0 1 125 263l-22-46a152 152 0 0 0-81-171l-22-46z" class="st0" fill="#164a72"/><path d="M256 336l90 38-23-47-67-29-67 29-22 47m89-353L69 415l49-20 22-48 72-150 44-94 62 132 54 112 22 48 49 20L256 21z" class="st1" fill="#00aeef"/><path d="M300 277l-44-94-44 94 44-19z" fill="#00aeef"/></svg>