<?xml version="1.0" encoding="UTF-8" standalone="no"?>
<!-- Generator: Adobe Illustrator 19.1.0, SVG Export Plug-In . SVG Version: 6.00 Build 0)  -->

<svg
   xmlns:dc="http://purl.org/dc/elements/1.1/"
   xmlns:cc="http://creativecommons.org/ns#"
   xmlns:rdf="http://www.w3.org/1999/02/22-rdf-syntax-ns#"
   xmlns:svg="http://www.w3.org/2000/svg"
   xmlns="http://www.w3.org/2000/svg"
   xmlns:sodipodi="http://sodipodi.sourceforge.net/DTD/sodipodi-0.dtd"
   xmlns:inkscape="http://www.inkscape.org/namespaces/inkscape"
   version="1.1"
   id="Layer_1"
   x="0px"
   y="0px"
   viewBox="0 0 1792 512"
   xml:space="preserve"
   inkscape:version="0.48.4 r9939"
   width="100%"
   height="100%"
   sodipodi:docname="appauth_lockup_js.svg"><metadata
     id="metadata17"><rdf:RDF><cc:Work
         rdf:about=""><dc:format>image/svg+xml</dc:format><dc:type
           rdf:resource="http://purl.org/dc/dcmitype/StillImage" /><dc:title /></cc:Work></rdf:RDF></metadata><defs
     id="defs15" /><sodipodi:namedview
     pagecolor="#ffffff"
     bordercolor="#666666"
     borderopacity="1"
     objecttolerance="10"
     gridtolerance="10"
     guidetolerance="10"
     inkscape:pageopacity="1"
     inkscape:pageshadow="2"
     inkscape:window-width="2145"
     inkscape:window-height="1036"
     id="namedview13"
     showgrid="false"
     inkscape:zoom="0.7527163"
     inkscape:cx="756.05994"
     inkscape:cy="234.54711"
     inkscape:window-x="259"
     inkscape:window-y="463"
     inkscape:window-maximized="0"
     inkscape:current-layer="Layer_1"
     showguides="true"
     inkscape:guide-bbox="true"><sodipodi:guide
       orientation="0,1"
       position="1367.0489,73.068698"
       id="guide2989" /><sodipodi:guide
       orientation="0,1"
       position="1300.6228,694.81689"
       id="guide2991" /><sodipodi:guide
       orientation="0,1"
       position="870.18177,548.6795"
       id="guide2993" /></sodipodi:namedview><style
     type="text/css"
     id="style3">
	.st0{fill:#164A72;}
	.st1{fill:#00AEEF;}
</style><path
     style="fill:#164a72"
     inkscape:connector-curvature="0"
     id="path7"
     d="M 107.59088,331.39582 C 95.812834,306.8005 89.230987,279.3184 89.230987,250.33518 c 0,-88.33531 60.968693,-162.35222 143.184053,-182.328705 L 210.59101,114.0794 c -50.46082,24.59532 -85.21759,76.4418 -85.21759,136.25578 0,12.00899 1.38565,23.78703 4.15695,34.98771 l -21.93949,46.07293 z m 283.82772,67.55055 c -31.75452,24.47984 -71.47655,39.14467 -114.54723,39.14467 -43.18615,0 -82.90818,-14.54935 -114.54723,-39.14467 l 39.72202,-16.7433 c 22.05496,12.58633 47.57405,19.74554 74.82521,19.74554 27.25116,0 52.77025,-7.15921 74.82521,-19.74554 l 39.72202,16.7433 z M 321.3277,68.006475 c 82.21536,19.976495 143.18405,94.108875 143.18405,182.328715 0,29.09868 -6.58185,56.58078 -18.35989,81.06064 L 424.32784,285.3229 c 2.65583,-11.20068 4.15695,-22.97872 4.15695,-34.98771 0,-59.92945 -34.75677,-111.77593 -85.21759,-136.37125 L 321.32771,68.006475 z"
     class="st0" /><path
     style="fill:#00aeef"
     inkscape:connector-curvature="0"
     id="path9"
     d="m 276.87137,336.43332 89.6055,37.75902 -22.63232,-47.57406 -66.97318,-28.29039 -66.97318,28.29039 -22.51685,47.57406 M 276.87137,21.312965 90.270226,415.18454 l 48.497824,-20.43837 22.51685,-47.57405 71.13014,-149.99683 44.45633,-93.87792 62.46981,131.75241 53.11666,112.12234 22.51685,47.57405 48.49782,20.43837 L 276.87137,21.312965 z"
     class="st1" /><path
     style="fill:#00aeef"
     d="M 321.32803,277.188 276.8717,183.31008 232.41537,277.188 276.8717,258.4817 z"
     id="polygon11"
     inkscape:connector-curvature="0" /><g
     style="font-size:298.68112183px;font-style:normal;font-variant:normal;font-weight:normal;font-stretch:normal;line-height:125%;letter-spacing:0px;word-spacing:0px;fill:#164a72;fill-opacity:1;stroke:none;font-family:Roboto;-inkscape-font-specification:Roboto"
     id="text2985"><path
       d="m 701.42888,246.46773 -89.40016,0 -20.85517,56.58607 -27.56384,0 81.9623,-212.343608 23.33446,0 80.64974,212.343608 -27.56383,0 -20.5635,-56.58607 m -81.37894,-21.73022 73.50356,0 -36.4601,-100.62987 -37.04346,100.62987"
       style=""
       id="path3193" /><path
       d="m 910.27232,229.98777 c -1.6e-4,23.33451 -5.34763,41.85622 -16.04244,55.56519 -10.59787,13.61177 -25.66803,20.41765 -45.21053,20.41765 -10.01445,0 -18.66764,-1.60425 -25.95959,-4.81273 -7.29208,-3.30571 -13.51459,-8.21567 -18.66757,-14.72988 l -0.43752,0.14584 0,77.14957 -27.12631,0 0,-218.46891 23.18862,0 2.62513,20.12597 c 5.2502,-7.58355 11.61856,-13.31994 19.10509,-17.20916 7.4864,-3.88892 16.43127,-5.83346 26.83463,-5.83362 19.83418,1.6e-4 35.05018,7.63247 45.64805,22.89694 10.69481,15.16753 16.04228,35.731 16.04244,61.69049 l 0,3.06265 m -27.12631,-3.06265 c -1.3e-4,-18.57025 -3.5003,-33.54318 -10.50051,-44.91884 -7.00045,-11.47265 -17.64679,-17.20903 -31.93905,-17.20917 -8.84773,1.4e-4 -16.28558,1.94468 -22.31358,5.83362 -5.9309,3.8892 -10.74363,9.23668 -14.4382,16.04244 l 0,76.12868 c 3.88903,6.90315 8.75037,12.20201 14.58404,15.89661 5.93078,3.69464 13.41724,5.54195 22.45942,5.54193 14.19503,2e-5 24.74415,-4.90993 31.64737,-14.72988 7.00021,-9.9171 10.50038,-23.09134 10.50051,-39.52274 l 0,-3.06265"
       style=""
       id="path3195" /><path
       d="m 1079.4472,229.98777 c -2e-4,23.33451 -5.3477,41.85622 -16.0425,55.56519 -10.5978,13.61177 -25.668,20.41765 -45.2105,20.41765 -10.0145,0 -18.66764,-1.60425 -25.95959,-4.81273 -7.29208,-3.30571 -13.51459,-8.21567 -18.66757,-14.72988 l -0.43752,0.14584 0,77.14957 -27.12631,0 0,-218.46891 23.18862,0 2.62513,20.12597 c 5.2502,-7.58355 11.61856,-13.31994 19.10509,-17.20916 7.4864,-3.88892 16.43125,-5.83346 26.83465,-5.83362 19.8342,1.6e-4 35.0502,7.63247 45.648,22.89694 10.6948,15.16753 16.0423,35.731 16.0425,61.69049 l 0,3.06265 m -27.1263,-3.06265 c -2e-4,-18.57025 -3.5003,-33.54318 -10.5006,-44.91884 -7.0004,-11.47265 -17.6467,-17.20903 -31.939,-17.20917 -8.8477,1.4e-4 -16.28558,1.94468 -22.31358,5.83362 -5.9309,3.8892 -10.74363,9.23668 -14.4382,16.04244 l 0,76.12868 c 3.88903,6.90315 8.75037,12.20201 14.58404,15.89661 5.93078,3.69464 13.41724,5.54195 22.45944,5.54193 14.195,2e-5 24.7441,-4.90993 31.6473,-14.72988 7.0003,-9.9171 10.5004,-23.09134 10.5006,-39.52274 l 0,-3.06265"
       style=""
       id="path3197" /><path
       d="m 1237.5381,246.46773 -89.4001,0 -20.8552,56.58607 -27.5638,0 81.9623,-212.343608 23.3344,0 80.6498,212.343608 -27.5639,0 -20.5635,-56.58607 m -81.3789,-21.73022 73.5036,0 -36.4601,-100.62987 -37.0435,100.62987"
       style=""
       id="path3199" /><path
       d="m 1411.8174,280.01102 -0.4375,-0.14584 c -4.8614,8.45876 -11.1326,14.92434 -18.8134,19.39677 -7.681,4.47244 -16.8203,6.70866 -27.418,6.70866 -17.5009,0 -30.9668,-5.34748 -40.3978,-16.04244 -9.431,-10.79217 -14.1465,-28.04993 -14.1465,-51.77334 l 0,-92.90033 27.1263,0 0,93.19201 c 0,17.30644 2.5279,29.16811 7.5837,35.58505 5.0558,6.31978 13.077,9.47965 24.0637,9.47963 10.8893,2e-5 19.6397,-2.09036 26.2513,-6.27114 6.7085,-4.27795 11.8129,-10.45186 15.3132,-18.52173 l 0,-113.46382 26.9805,0 0,157.7993 -24.2095,0 -1.896,-23.04278"
       style=""
       id="path3201" /><path
       d="m 1513.1765,106.89848 0,38.35602 30.3348,0 0,20.56349 -30.3348,0 0,96.54634 c -10e-5,7.77819 1.3125,13.22289 3.9377,16.33413 2.625,3.01405 6.2224,4.52107 10.7921,4.52105 2.3334,2e-5 4.6669,-0.14582 7.0004,-0.43752 2.4306,-0.38889 4.6668,-0.87502 6.7086,-1.45841 l 3.646,19.1051 c -2.5279,1.65285 -6.0767,2.96542 -10.6463,3.93769 -4.4725,1.06949 -8.9449,1.60424 -13.4173,1.60424 -10.9867,0 -19.5913,-3.40294 -25.8138,-10.20883 -6.2225,-6.90309 -9.3338,-18.03557 -9.3338,-33.39745 l 0,-96.54634 -22.6052,0 0,-20.56349 22.6052,0 0,-38.35602 27.1264,0"
       style=""
       id="path3203" /><path
       d="m 1602.5766,166.69304 0.4376,0.14584 c 5.3474,-7.77801 11.9588,-13.80608 19.8343,-18.08421 7.8753,-4.27783 16.8201,-6.41682 26.8346,-6.41698 17.209,1.6e-4 30.3347,4.95873 39.3769,14.87572 9.1392,9.91728 13.7088,25.61942 13.709,47.10645 l 0,98.73394 -26.9805,0 0,-99.02562 c -1e-4,-13.70889 -2.8197,-23.67464 -8.4587,-29.89728 -5.6393,-6.22239 -14.2439,-9.33365 -25.8138,-9.33379 -8.4588,1.4e-4 -15.9939,1.99329 -22.6052,5.97946 -6.6115,3.98643 -12.0562,9.47975 -16.3342,16.47996 l 0,115.79727 -27.1263,0 0,-227.511008 27.1263,0 0,91.150248"
       style=""
       id="path3205" /></g><g
     style="font-size:113.09101868px;font-style:normal;font-variant:normal;font-weight:normal;font-stretch:normal;line-height:125%;letter-spacing:0px;word-spacing:0px;fill:#00aeef;fill-opacity:1;stroke:none;font-family:Roboto;-inkscape-font-specification:Roboto"
     id="text2987"><path
       d="m 1417.9305,435.36438 0,-51.96223 -9.3874,0 0,-7.78605 9.3874,0 0,-7.67561 c 0,-6.44229 1.6014,-11.35688 4.8042,-14.7438 3.2396,-3.42357 7.8596,-5.1354 13.8603,-5.13548 1.2516,8e-5 2.4848,0.11052 3.6997,0.33132 1.2516,0.18415 2.669,0.46025 4.252,0.8283 l -1.2701,8.00693 c -0.6995,-0.18399 -1.5094,-0.33124 -2.4297,-0.44176 -0.9203,-0.11036 -1.9143,-0.16558 -2.9819,-0.16566 -3.3132,8e-5 -5.7613,0.95723 -7.3443,2.87145 -1.5461,1.91438 -2.3192,4.73061 -2.3192,8.4487 l 0,7.67561 12.7006,0 0,7.78605 -12.7006,0 0,51.96223 -10.271,0"
       style=""
       id="path3208" /><path
       d="m 1449.0747,404.88282 c 0,-9.01927 2.3561,-16.32674 7.0682,-21.92243 4.7121,-5.63241 11.2281,-8.44864 19.548,-8.4487 8.3934,6e-5 14.9462,2.81629 19.6584,8.4487 4.7489,5.59569 7.1233,12.90316 7.1234,21.92243 l 0,1.32528 c -10e-5,9.05614 -2.3561,16.36361 -7.0682,21.92243 -4.7122,5.55884 -11.2466,8.33825 -19.6032,8.33825 -8.3935,0 -14.9463,-2.77941 -19.6584,-8.33825 -4.7121,-5.55882 -7.0682,-12.86629 -7.0682,-21.92243 l 0,-1.32528 m 10.271,1.32528 c 0,6.51601 1.3621,11.81715 4.0863,15.90343 2.7242,4.0863 6.8473,6.12945 12.3693,6.12944 5.4484,10e-6 9.5531,-2.04314 12.3141,-6.12944 2.761,-4.1231 4.1415,-9.42423 4.1416,-15.90343 l 0,-1.32528 c -10e-5,-6.40551 -1.399,-11.68824 -4.1968,-15.84821 -2.761,-4.15987 -6.8841,-6.23983 -12.3693,-6.23988 -5.4484,5e-5 -9.5347,2.08001 -12.2589,6.23988 -2.7242,4.15997 -4.0863,9.4427 -4.0863,15.84821 l 0,1.32528"
       style=""
       id="path3210" /><path
       d="m 1544.4953,384.83787 -5.9638,-0.33132 c -3.1292,5e-5 -5.7061,0.71792 -7.7308,2.15359 -2.0248,1.43578 -3.5894,3.49733 -4.6938,6.18467 l 0,42.51957 -10.2709,0 0,-59.74828 9.1665,0 0.994,8.66957 0.1657,0.0552 c 1.6566,-3.09228 3.7365,-5.50356 6.2399,-7.23385 2.5032,-1.73017 5.4483,-2.59529 8.8352,-2.59535 0.8835,6e-5 1.7486,0.0737 2.5953,0.22088 0.8835,0.1105 1.5646,0.23935 2.0432,0.38655 l -1.3805,9.71875"
       style=""
       id="path3212" /><path
       d="m 1618.2143,354.96373 10.2157,0 0,58.09168 c 0,7.36271 -2.2272,13.12402 -6.6816,17.28393 -4.4545,4.12311 -10.3446,6.18466 -17.6705,6.18466 -7.8413,0 -14.0075,-1.9327 -18.4988,-5.79812 -4.4544,-3.86541 -6.6816,-9.70034 -6.6816,-17.50481 l 10.2157,0 c 0,5.1539 1.2701,8.9641 3.8102,11.43059 2.5401,2.42969 6.2583,3.64454 11.1545,3.64453 4.1967,10e-6 7.602,-1.36209 10.2157,-4.0863 2.6138,-2.72418 3.9206,-6.44234 3.9207,-11.15448 l 0,-58.09168"
       style=""
       id="path3214" /><path
       d="m 1691.8228,415.15378 c 0,-3.82858 -1.3805,-6.95772 -4.1415,-9.38744 -2.761,-2.46647 -7.8045,-4.60165 -15.1303,-6.40555 -8.688,-2.06151 -15.3697,-5.00659 -20.045,-8.83523 -4.6753,-3.82856 -7.0129,-8.77996 -7.0129,-14.85424 0,-6.36867 2.5217,-11.59618 7.5651,-15.68255 5.0803,-4.12303 11.7619,-6.18458 20.045,-6.18466 8.872,8e-5 15.885,2.37455 21.0389,7.12341 5.1538,4.74901 7.7308,10.4735 7.7308,17.17349 l -10.2157,0 c -1e-4,-4.85932 -1.5831,-8.74314 -4.749,-11.65147 -3.166,-2.90819 -7.7676,-4.36232 -13.805,-4.3624 -5.7061,8e-5 -10.0317,1.23333 -12.9768,3.69976 -2.9451,2.42975 -4.4176,5.66934 -4.4176,9.71876 0,3.60777 1.5462,6.58966 4.6385,8.94567 3.1291,2.3193 8.375,4.38085 15.7378,6.18467 8.6143,2.17204 15.0935,5.24596 19.4375,9.22178 4.3807,3.97588 6.5711,9.03773 6.5712,15.18556 -1e-4,6.58962 -2.6138,11.81713 -7.8413,15.68254 -5.1907,3.86542 -12.1116,5.79812 -20.7628,5.79812 -8.2094,0 -15.3696,-2.13518 -21.4806,-6.40554 -6.0743,-4.27036 -9.1114,-10.21573 -9.1114,-17.83613 l 10.2158,0 c -10e-5,5.33797 1.9327,9.35063 5.7981,12.03801 3.9022,2.65057 8.7616,3.97586 14.5781,3.97585 5.7429,10e-6 10.2341,-1.15962 13.4738,-3.47887 3.2395,-2.31924 4.8593,-5.54042 4.8593,-9.66354"
       style=""
       id="path3216" /></g></svg>